<?xml version="1.0" standalone="no"?>
<!DOCTYPE svg PUBLIC "-//W3C//DTD SVG 20010904//EN"
 "http://www.w3.org/TR/2001/REC-SVG-20010904/DTD/svg10.dtd">
<svg version="1.0" xmlns="http://www.w3.org/2000/svg"
 width="718.000000pt" height="485.000000pt" viewBox="0 0 718.000000 485.000000"
 preserveAspectRatio="xMidYMid meet">

<g transform="translate(0.000000,485.000000) scale(0.100000,-0.100000)"
fill="#000000" stroke="none">
<path d="M2124 3454 c9 -8 16 -24 16 -35 0 -32 -34 -19 -38 14 -2 19 -9 27
-22 27 -17 0 -18 -2 -5 -27 14 -26 12 -43 -5 -43 -9 0 -25 39 -22 53 3 11 -19
9 -95 -9 -73 -17 -269 -111 -298 -144 -17 -19 -17 -21 -1 -39 27 -30 10 -45
-24 -21 -17 12 -31 16 -35 11 -3 -6 5 -16 19 -23 l24 -13 -23 -29 c-22 -28
-23 -28 -49 -11 -16 11 -26 13 -26 6 0 -6 7 -14 15 -17 14 -6 22 -34 9 -34 -3
0 -19 10 -36 21 l-30 22 -28 -29 c-36 -37 -107 -161 -131 -231 l-18 -53 24 0
c13 0 27 -5 31 -11 5 -8 -3 -10 -25 -7 -18 3 -34 1 -37 -4 -3 -4 4 -8 15 -8
21 0 37 -17 27 -27 -3 -4 -17 -1 -31 5 -21 10 -25 9 -25 -3 0 -8 9 -15 19 -15
11 0 23 -5 27 -11 5 -8 -3 -10 -24 -7 -27 4 -32 1 -36 -21 -23 -121 -28 -181
-24 -281 5 -104 9 -124 43 -210 79 -198 220 -369 406 -493 99 -65 162 -95 286
-134 74 -23 110 -28 226 -31 170 -4 219 7 382 87 248 123 389 277 502 552 l48
114 0 175 c0 197 -3 209 -85 387 -51 107 -125 229 -169 277 -31 33 -137 119
-201 163 -49 33 -149 71 -132 50 13 -16 3 -67 -13 -67 -18 0 -23 20 -14 52 4
14 5 29 1 32 -14 14 -22 3 -22 -29 0 -25 -4 -35 -15 -35 -22 0 -28 22 -16 53
9 22 8 27 -4 27 -10 0 -15 -10 -15 -30 0 -23 -4 -30 -20 -30 -27 0 -29 57 -2
62 30 6 -115 38 -170 37 -29 0 -47 -3 -40 -6 6 -2 12 -16 12 -29 0 -17 -6 -24
-20 -24 -16 0 -20 7 -20 30 0 29 -1 30 -51 30 -46 0 -49 -1 -35 -16z m71 -14
c7 -22 0 -40 -16 -40 -11 0 -29 41 -22 53 8 14 32 7 38 -13z m115 -10 c0 -23
-4 -30 -20 -30 -16 0 -20 7 -20 30 0 23 4 30 20 30 16 0 20 -7 20 -30z m50
-17 c0 -14 -6 -23 -15 -23 -15 0 -22 50 -8 63 9 10 23 -14 23 -40z m50 -5 c0
-23 -4 -29 -17 -26 -19 3 -28 30 -19 53 9 25 36 5 36 -27z m-380 13 c14 -27
13 -41 -3 -41 -15 0 -39 44 -30 54 11 11 22 6 33 -13z m-47 -50 c-9 -2 -25 7
-36 20 -18 22 -18 23 0 30 13 4 23 -1 35 -20 17 -24 17 -26 1 -30z m-55 18
c10 -16 11 -24 2 -33 -8 -8 -16 -5 -30 14 -10 13 -16 28 -14 32 9 15 29 8 42
-13z m-50 -20 c10 -16 11 -24 2 -33 -8 -8 -16 -5 -30 14 -14 18 -15 27 -7 32
18 11 21 10 35 -13z m743 -2 c-2 -29 -15 -57 -25 -54 -10 4 -11 25 -1 55 5 14
27 13 26 -1z m-788 -21 c16 -24 13 -36 -7 -36 -15 0 -38 38 -31 50 10 16 22
12 38 -14z m835 6 c8 -6 10 -19 6 -40 -7 -36 -11 -37 -37 -18 -15 12 -16 18
-6 40 13 28 17 30 37 18z m-882 -27 c16 -16 11 -35 -9 -35 -15 0 -38 35 -30
44 10 10 24 7 39 -9z m940 -38 c-8 -40 -13 -44 -32 -26 -12 13 -13 21 -3 42
16 36 43 24 35 -16z m-976 -9 c0 -15 -27 -8 -44 11 -13 15 -14 20 -4 24 14 5
48 -20 48 -35z m685 -10 c55 -16 129 -45 165 -65 128 -69 261 -188 317 -282
l27 -44 -23 -18 c-22 -18 -23 -18 -52 3 -22 17 -26 25 -17 35 8 10 6 13 -9 11
-23 -4 -119 107 -100 116 7 3 6 5 -3 3 -22 -3 -120 74 -120 95 0 10 -5 18 -11
18 -6 0 -9 -7 -5 -15 4 -12 0 -14 -21 -9 -29 8 -54 11 -96 13 -24 1 -27 4 -22
21 4 11 2 20 -4 20 -6 0 -11 -7 -11 -15 0 -19 -9 -19 -34 0 -11 8 -26 15 -33
15 -8 0 -35 10 -60 21 -33 15 -68 21 -116 22 -63 0 -77 -4 -180 -56 -131 -65
-208 -87 -231 -68 -10 8 -16 9 -16 3 0 -6 -24 -18 -52 -27 -29 -10 -57 -21
-62 -25 -5 -5 -15 -6 -24 -3 -9 4 -13 2 -9 -4 9 -14 -29 -47 -44 -38 -7 5 -10
3 -7 -6 7 -20 -10 -49 -28 -49 -10 0 -14 -6 -11 -14 6 -15 -36 -60 -46 -49
-12 11 -8 25 5 17 8 -5 9 -2 5 9 -4 11 13 41 50 89 60 78 86 102 91 87 7 -18
24 -8 19 11 -6 25 38 57 160 119 204 102 398 121 608 59z m339 -30 c-14 -27
-17 -29 -31 -15 -13 13 -14 19 -2 46 12 28 15 29 31 14 16 -14 16 -18 2 -45z
m-1079 39 c28 -21 9 -40 -20 -21 -14 9 -22 20 -19 25 7 12 17 11 39 -4z m1127
-73 c-30 -41 -52 -22 -32 27 12 28 14 29 31 13 17 -15 17 -18 1 -40z m47 -8
c9 -11 9 -19 -1 -35 -15 -24 -31 -27 -46 -8 -9 10 -7 19 4 35 18 26 27 27 43
8z m-551 -22 c29 -8 60 -22 70 -32 9 -9 22 -17 27 -17 6 0 31 -4 58 -8 53 -9
67 -36 20 -38 l-28 -1 25 -7 c20 -6 28 -3 38 16 7 13 16 23 20 23 11 0 112
-49 112 -54 0 -7 -40 6 -46 15 -3 5 -15 9 -27 8 l-22 0 23 -9 c12 -5 22 -16
22 -25 0 -14 12 -20 33 -16 13 2 47 -19 47 -29 0 -6 -8 -10 -17 -10 -14 0 -12
-4 7 -25 26 -27 40 -26 20 2 -7 10 5 -1 26 -23 21 -23 47 -52 56 -65 15 -20
19 -22 27 -9 9 13 12 12 28 -3 10 -10 27 -25 38 -33 20 -15 20 -15 -3 -11 -19
4 -22 2 -17 -14 5 -14 2 -19 -13 -19 -18 0 -86 65 -178 168 -68 78 -158 104
-211 62 -14 -11 -30 -17 -36 -13 -6 4 -8 0 -4 -10 7 -18 -26 -47 -53 -47 -12
1 -10 4 5 16 19 16 19 16 -5 9 -23 -7 -23 -7 5 18 38 34 13 35 -27 2 -16 -14
-35 -25 -41 -25 -21 1 57 61 86 67 22 4 27 11 27 34 0 17 -7 32 -17 38 -32 16
-93 30 -93 20 0 -5 7 -9 15 -9 19 0 85 -32 85 -41 0 -4 -24 2 -52 13 -67 26
-153 38 -193 27 -16 -5 -43 -5 -58 -1 l-28 7 41 19 c23 10 39 20 36 23 -10 10
-90 -28 -120 -58 -31 -30 -24 -40 10 -14 22 17 44 19 44 5 0 -6 -12 -15 -27
-21 -27 -10 -26 -11 57 -60 47 -27 89 -49 93 -49 5 0 5 -9 2 -20 -6 -17 -2
-20 29 -20 20 0 36 5 36 11 0 6 -9 9 -20 6 -11 -3 -22 -2 -25 3 -7 12 49 20
81 11 l29 -8 -32 -17 c-18 -9 -33 -21 -33 -26 0 -5 -6 -7 -14 -4 -17 6 -30
-11 -20 -27 4 -8 9 -7 16 2 6 9 7 5 2 -12 -3 -15 -1 -30 5 -34 6 -3 9 -10 6
-15 -3 -4 2 -10 10 -14 20 -7 19 -42 -1 -50 -12 -4 -15 -2 -10 9 6 17 -9 21
-19 5 -3 -5 -13 -10 -22 -10 -11 0 -14 6 -9 23 3 12 -1 36 -10 52 -8 16 -13
43 -12 59 3 31 3 31 -57 36 -49 4 -72 13 -124 47 -62 41 -66 42 -125 37 -34
-3 -73 -7 -88 -9 -17 -3 -30 1 -35 9 -7 12 -15 12 -53 -1 -46 -15 -74 -32 -66
-40 2 -2 21 5 42 16 42 23 64 27 64 11 0 -5 -7 -10 -15 -10 -8 0 -15 -3 -15
-7 0 -5 -25 -35 -55 -68 -31 -33 -52 -51 -46 -40 5 11 19 29 30 39 12 11 21
26 21 35 0 9 -20 -6 -48 -38 -27 -30 -53 -52 -59 -48 -12 7 -68 -32 -59 -41 3
-3 1 -11 -6 -19 -10 -12 -7 -12 16 -2 16 8 22 15 15 19 -11 7 18 25 35 21 4
-1 14 4 22 10 9 7 14 8 14 1 0 -6 -26 -26 -57 -45 -61 -37 -103 -53 -103 -41
0 4 10 19 23 32 19 22 20 24 3 18 -16 -5 -17 -4 -6 9 7 8 18 15 24 15 6 0 35
23 65 50 29 28 57 50 61 50 5 0 6 8 3 18 -5 21 37 55 82 66 17 4 38 15 47 23
12 11 29 14 57 10 22 -3 41 -2 43 2 2 5 20 11 41 14 22 3 35 2 32 -4 -4 -5 1
-9 9 -9 8 0 24 14 36 30 12 17 30 30 40 30 10 0 29 10 42 22 60 52 159 64 276
32z m596 -29 c6 -15 -13 -55 -25 -55 -4 0 -12 7 -19 15 -10 13 -10 19 5 35 22
24 31 25 39 5z m-1393 -21 c17 -8 28 -18 25 -21 -7 -8 -66 17 -66 28 0 12 6
11 41 -7z m-26 -26 c26 -12 32 -23 16 -33 -11 -6 -61 14 -61 25 0 7 11 20 16
20 2 0 15 -5 29 -12z m801 -10 c41 -11 74 -25 74 -30 0 -4 -5 -8 -11 -8 -6 0
-27 -13 -45 -30 -49 -43 -77 -47 -136 -19 -70 33 -115 67 -97 74 115 42 117
42 215 13z m649 -28 c-17 -18 -20 -19 -34 -6 -13 14 -13 18 4 36 17 18 20 19
34 6 13 -14 13 -18 -4 -36z m-1461 -11 c17 -15 -3 -23 -29 -11 -32 15 -34 36
-2 27 12 -4 26 -11 31 -16z m1491 -34 c-26 -19 -35 -19 -35 3 0 30 21 45 39
27 13 -13 13 -16 -4 -30z m-1505 -6 c0 -12 -17 -11 -41 1 -30 17 -22 30 11 19
17 -6 30 -15 30 -20z m-20 -41 c0 -10 -39 -1 -54 12 -4 5 -5 13 -2 19 8 12 56
-15 56 -31z m1286 20 c37 -43 65 -88 54 -88 -5 0 -10 4 -10 9 0 4 -18 26 -40
47 -22 22 -40 42 -40 47 0 14 17 7 36 -15z m277 8 c6 -15 -11 -36 -29 -36 -22
0 -27 21 -8 35 24 18 31 18 37 1z m-1593 -46 c8 -5 11 -12 8 -16 -10 -9 -58 4
-58 16 0 13 30 13 50 0z m1616 -2 c7 -10 -20 -38 -38 -38 -12 0 -10 24 4 38
15 15 25 15 34 0z m-1626 -45 c0 -12 -7 -13 -27 -8 -33 8 -37 11 -29 23 9 14
56 2 56 -15z m1650 -2 c0 -19 -35 -39 -47 -27 -7 7 26 46 39 46 4 0 8 -9 8
-19z m-1670 -33 c0 -6 -7 -7 -16 -4 -9 3 -20 6 -25 6 -5 0 -9 4 -9 9 0 4 11 6
25 3 14 -2 25 -9 25 -14z m1676 -24 c-24 -17 -36 -18 -36 -3 0 19 33 39 45 28
7 -7 4 -15 -9 -25z m34 -24 c0 -13 -38 -32 -50 -25 -15 10 -12 23 8 28 30 8
42 7 42 -3z m-153 -15 c14 -10 20 -22 16 -31 -3 -9 0 -20 8 -26 18 -12 -43 0
-83 16 -25 11 -27 14 -14 31 12 16 16 17 30 6 9 -7 14 -17 11 -21 -3 -5 5 -6
17 -2 l21 5 -22 19 c-28 22 -14 24 16 3z m163 -30 c0 -10 -10 -15 -30 -15 -36
0 -38 7 -7 20 32 13 37 12 37 -5z m-590 -15 c0 -5 -2 -10 -4 -10 -3 0 -8 5
-11 10 -3 6 -1 10 4 10 6 0 11 -4 11 -10z m570 -34 c0 -3 -4 -8 -10 -11 -5 -3
-10 -1 -10 4 0 6 5 11 10 11 6 0 10 -2 10 -4z m40 -41 c0 -8 -4 -15 -10 -15
-5 0 -7 7 -4 15 4 8 8 15 10 15 2 0 4 -7 4 -15z m-30 -11 c0 -2 -7 -4 -15 -4
-8 0 -15 4 -15 10 0 5 7 7 15 4 8 -4 15 -8 15 -10z m-885 -9 c83 -3 305 -7
495 -10 190 -4 349 -10 354 -15 4 -4 9 -41 10 -82 l1 -73 -85 1 c-76 0 -92 4
-149 33 -89 46 -155 64 -227 63 -114 -1 -181 -45 -238 -156 -22 -42 -47 -81
-57 -86 -30 -17 -66 5 -86 52 l-19 42 -32 -52 c-33 -54 -53 -63 -93 -42 -13 8
-19 21 -19 47 0 55 -34 114 -87 154 -96 72 -176 77 -363 23 -69 -20 -150 -38
-181 -41 -49 -5 -59 -3 -78 16 -19 19 -21 29 -16 64 13 87 -27 79 368 73 194
-3 420 -8 502 -11z m-710 -190 l91 0 -69 -85 c-61 -75 -129 -131 -143 -118 -8
9 -34 142 -34 180 0 37 0 37 33 30 17 -4 73 -7 122 -7z m430 0 c56 -23 72 -92
35 -153 -23 -37 -88 -72 -135 -72 -37 0 -104 30 -128 58 -40 45 -30 148 16
170 33 16 172 14 212 -3z m762 -16 c37 -14 65 -68 59 -113 -7 -56 -35 -89 -91
-104 -114 -33 -225 31 -225 128 0 36 62 92 111 101 46 7 108 2 146 -12z m253
-34 c30 0 71 3 91 8 l36 7 -19 -87 c-11 -49 -22 -91 -26 -95 -17 -18 -92 35
-123 85 -17 29 -41 62 -53 75 l-21 24 30 -9 c17 -4 55 -8 85 -8z m-1405 -162
c-4 -10 -11 -52 -15 -93 -5 -41 -12 -86 -17 -99 -9 -23 -11 -21 -45 30 -63 96
-71 119 -40 119 10 0 38 13 62 29 53 34 65 37 55 14z m788 -9 c45 5 50 3 78
-29 40 -45 109 -77 183 -84 l61 -6 3 -38 c3 -33 -2 -42 -52 -92 -30 -30 -62
-55 -70 -55 -21 0 -30 39 -16 74 14 38 -2 95 -36 127 -29 27 -63 29 -209 15
-67 -7 -98 -5 -181 13 -96 21 -103 21 -142 5 -80 -31 -110 -94 -77 -158 17
-32 18 -45 6 -64 -13 -22 -107 16 -143 57 -26 30 -29 39 -24 75 10 60 26 72
104 79 66 6 142 32 192 68 19 13 35 15 60 10 35 -7 108 3 123 18 5 5 27 2 50
-6 26 -9 60 -13 90 -9z m574 -23 c12 -6 42 -11 67 -11 30 0 46 -4 46 -12 0
-19 -60 -130 -98 -184 -25 -34 -36 -44 -45 -35 -6 6 -13 65 -17 138 -3 71 -9
135 -14 143 -5 8 2 5 15 -6 13 -12 34 -27 46 -33z m-132 -104 c9 -74 27 -123
61 -158 l25 -26 -43 -39 c-24 -22 -71 -59 -105 -82 l-62 -42 -20 26 c-29 37
-49 106 -33 112 27 9 111 82 117 103 4 12 8 54 10 93 2 39 6 80 11 90 7 18 8
18 20 2 7 -10 15 -45 19 -79z m-1122 37 c-1 -21 -5 -55 -8 -75 -9 -50 14 -91
75 -135 28 -20 50 -38 50 -40 0 -14 -29 -71 -42 -81 -12 -10 -29 2 -102 73
-67 64 -86 89 -81 102 4 9 19 49 33 87 29 82 50 117 66 112 6 -2 10 -21 9 -43z
m379 1 c8 -8 -23 -125 -33 -125 -11 0 -51 109 -44 121 7 10 68 13 77 4z m123
-37 c6 -6 0 -8 -19 -6 -16 2 -31 9 -34 17 -3 10 2 11 19 6 13 -4 29 -12 34
-17z m285 16 c0 -4 -10 -34 -22 -67 l-22 -61 -22 50 c-35 75 -32 84 21 84 25
0 45 -3 45 -6z m-505 -39 c8 -19 22 -51 30 -70 19 -43 11 -46 -10 -5 -18 36
-30 38 -39 8 l-6 -23 -15 25 c-14 25 -11 64 8 88 13 17 15 16 32 -23z m375 25
c0 -5 -7 -10 -16 -10 -8 0 -12 5 -9 10 3 6 10 10 16 10 5 0 9 -4 9 -10z m-70
-15 c-15 -19 -21 -19 -46 0 -18 13 -16 14 20 15 33 0 37 -2 26 -15z m260 -55
c0 -46 -8 -55 -31 -34 -17 15 -19 14 -38 -17 -27 -45 -26 -34 3 32 13 30 27
63 30 74 7 20 8 20 22 1 8 -11 14 -36 14 -56z m-410 53 c0 -13 -72 -134 -77
-129 -3 3 5 34 18 70 17 47 29 66 41 66 10 0 18 -3 18 -7z m186 -19 c-3 -9 -9
-26 -12 -39 -5 -21 -10 -23 -46 -19 -34 4 -40 2 -45 -16 -5 -19 -9 -15 -29 25
-13 25 -24 48 -24 50 0 6 59 -1 66 -8 13 -13 62 -7 68 8 3 8 10 15 17 15 6 0
8 -7 5 -16z m80 -40 c34 -78 25 -91 -14 -19 -34 63 -38 75 -21 75 5 0 21 -25
35 -56z m-227 -29 c23 -39 22 -40 -42 -49 -35 -5 -38 -3 -31 17 12 40 35 78
43 72 5 -3 18 -21 30 -40z m191 8 c8 -21 16 -41 18 -45 2 -5 -12 -8 -32 -8
-19 0 -37 3 -39 8 -6 9 23 82 32 82 4 0 13 -17 21 -37z m-100 -28 c0 -8 -7
-15 -15 -15 -8 0 -15 7 -15 15 0 8 7 15 15 15 8 0 15 -7 15 -15z m-280 -5 c0
-5 -2 -10 -4 -10 -3 0 -8 5 -11 10 -3 6 -1 10 4 10 6 0 11 -4 11 -10z m530 -5
c0 -8 -4 -15 -10 -15 -5 0 -10 7 -10 15 0 8 5 15 10 15 6 0 10 -7 10 -15z
m-500 -34 c30 -9 467 -6 496 3 24 7 53 -19 38 -33 -17 -16 -109 -39 -178 -46
-132 -13 -246 -6 -334 19 -46 13 -86 26 -89 29 -2 3 -2 15 2 27 5 15 12 19 23
15 10 -4 28 -10 42 -14z m-43 -95 c79 -29 206 -56 259 -56 56 0 234 29 277 46
45 17 57 18 57 3 0 -7 16 -33 35 -60 39 -55 42 -51 -55 -88 -124 -47 -356 -53
-511 -12 -79 20 -203 77 -197 89 30 62 53 102 59 102 4 0 38 -11 76 -24z"/>
<path d="M2235 3280 c-3 -5 1 -10 10 -10 9 0 13 5 10 10 -3 6 -8 10 -10 10 -2
0 -7 -4 -10 -10z"/>
<path d="M2135 3270 c-3 -5 1 -10 9 -10 9 0 16 5 16 10 0 6 -4 10 -9 10 -6 0
-13 -4 -16 -10z"/>
<path d="M2041 3261 c-10 -6 -10 -10 -1 -16 13 -8 24 -1 19 14 -3 6 -10 7 -18
2z"/>
<path d="M2332 3259 c2 -6 8 -10 13 -10 5 0 11 4 13 10 2 6 -4 11 -13 11 -9 0
-15 -5 -13 -11z"/>
<path d="M2186 3242 c-3 -6 -1 -14 5 -17 15 -10 25 3 12 16 -7 7 -13 7 -17 1z"/>
<path d="M2260 3240 c0 -5 5 -10 11 -10 5 0 7 5 4 10 -3 6 -8 10 -11 10 -2 0
-4 -4 -4 -10z"/>
<path d="M1960 3230 c0 -5 5 -10 10 -10 6 0 10 5 10 10 0 6 -4 10 -10 10 -5 0
-10 -4 -10 -10z"/>
<path d="M2085 3220 c-3 -5 1 -10 9 -10 9 0 16 5 16 10 0 6 -4 10 -9 10 -6 0
-13 -4 -16 -10z"/>
<path d="M2460 3215 c0 -10 7 -15 18 -13 21 4 19 22 -2 26 -10 2 -16 -3 -16
-13z"/>
<path d="M2360 3206 c0 -9 7 -16 16 -16 9 0 14 5 12 12 -6 18 -28 21 -28 4z"/>
<path d="M1876 3201 c-4 -7 -5 -15 -2 -18 9 -9 19 4 14 18 -4 11 -6 11 -12 0z"/>
<path d="M2006 3191 c-4 -7 -5 -15 -2 -18 9 -9 19 4 14 18 -4 11 -6 11 -12 0z"/>
<path d="M1925 3170 c3 -5 10 -10 16 -10 5 0 9 5 9 10 0 6 -7 10 -16 10 -8 0
-12 -4 -9 -10z"/>
<path d="M1780 3160 c0 -5 5 -10 10 -10 6 0 10 5 10 10 0 6 -4 10 -10 10 -5 0
-10 -4 -10 -10z"/>
<path d="M1830 3140 c0 -5 5 -10 10 -10 6 0 10 5 10 10 0 6 -4 10 -10 10 -5 0
-10 -4 -10 -10z"/>
<path d="M1900 3120 c0 -5 5 -10 10 -10 6 0 10 5 10 10 0 6 -4 10 -10 10 -5 0
-10 -4 -10 -10z"/>
<path d="M1725 3110 c3 -5 10 -10 16 -10 5 0 9 5 9 10 0 6 -7 10 -16 10 -8 0
-12 -4 -9 -10z"/>
<path d="M2700 3095 c0 -8 5 -15 10 -15 6 0 10 7 10 15 0 8 -4 15 -10 15 -5 0
-10 -7 -10 -15z"/>
<path d="M2810 2949 c0 -5 5 -7 10 -4 6 3 10 8 10 11 0 2 -4 4 -10 4 -5 0 -10
-5 -10 -11z"/>
<path d="M2860 2950 c0 -5 5 -10 11 -10 5 0 7 5 4 10 -3 6 -8 10 -11 10 -2 0
-4 -4 -4 -10z"/>
<path d="M2198 3173 c6 -2 18 -2 25 0 6 3 1 5 -13 5 -14 0 -19 -2 -12 -5z"/>
<path d="M2285 3163 c11 -3 26 -10 33 -16 7 -5 16 -7 19 -3 11 11 -19 26 -47
25 -21 -1 -21 -2 -5 -6z"/>
<path d="M2215 3150 c3 -5 13 -10 21 -10 8 0 14 5 14 10 0 6 -9 10 -21 10 -11
0 -17 -4 -14 -10z"/>
<path d="M2140 3140 c0 -5 5 -10 10 -10 6 0 10 5 10 10 0 6 -4 10 -10 10 -5 0
-10 -4 -10 -10z"/>
<path d="M1973 3063 c-13 -2 -23 -11 -23 -18 0 -12 5 -12 25 -3 14 6 25 15 25
20 0 4 -1 7 -2 7 -2 -1 -13 -4 -25 -6z"/>
<path d="M1869 3044 c-11 -14 -10 -15 11 -12 13 1 25 9 28 16 5 17 -23 15 -39
-4z"/>
<path d="M2434 3050 c-32 -12 -43 -34 -13 -25 26 8 45 22 38 29 -2 2 -14 0
-25 -4z"/>
<path d="M2565 3050 c3 -5 8 -10 11 -10 2 0 4 5 4 10 0 6 -5 10 -11 10 -5 0
-7 -4 -4 -10z"/>
<path d="M2000 3009 c23 -20 113 -69 125 -69 16 0 1 19 -20 24 -14 4 -25 13
-25 21 0 20 7 19 37 -5 14 -11 33 -20 42 -20 9 0 -9 16 -39 35 -53 35 -106 51
-67 21 29 -23 4 -27 -31 -5 -42 25 -54 24 -22 -2z"/>
<path d="M2740 2901 c0 -5 5 -13 10 -16 6 -3 10 -2 10 4 0 5 -4 13 -10 16 -5
3 -10 2 -10 -4z"/>
<path d="M2200 2875 c0 -8 5 -15 10 -15 6 0 10 7 10 15 0 8 -4 15 -10 15 -5 0
-10 -7 -10 -15z"/>
<path d="M2800 2841 c0 -6 4 -13 10 -16 6 -3 7 1 4 9 -7 18 -14 21 -14 7z"/>
<path d="M1545 2830 c-3 -5 -1 -10 4 -10 6 0 11 5 11 10 0 6 -2 10 -4 10 -3 0
-8 -4 -11 -10z"/>
<path d="M2220 2830 c0 -5 7 -10 16 -10 8 0 12 5 9 10 -3 6 -10 10 -16 10 -5
0 -9 -4 -9 -10z"/>
<path d="M2185 3074 c-15 -11 -17 -18 -9 -31 28 -45 75 -41 82 7 6 38 -36 52
-73 24z"/>
<path d="M1807 2409 c-18 -25 -11 -56 15 -70 39 -21 78 47 46 79 -18 18 -45
14 -61 -9z"/>
<path d="M2570 2385 c-17 -20 -5 -62 20 -70 24 -8 60 11 60 31 0 47 -52 72
-80 39z"/>
<path d="M1574 3195 c26 -19 42 -19 26 0 -7 8 -20 15 -29 15 -13 -1 -13 -3 3
-15z"/>
<path d="M3948 3008 c-8 -7 -64 -93 -124 -190 -60 -98 -111 -174 -114 -170 -4
4 -16 52 -28 107 -12 55 -32 134 -45 175 l-23 75 -55 3 c-113 6 -238 -74 -255
-163 -8 -45 -3 -50 34 -31 22 11 31 25 37 52 9 49 60 100 109 109 20 4 40 5
43 1 8 -8 -66 -375 -83 -408 -36 -70 -117 -90 -174 -41 l-32 26 -25 -25 -25
-26 26 -17 c35 -23 105 -30 151 -15 91 30 143 112 182 284 13 61 26 112 28
114 7 8 47 -164 57 -250 10 -80 15 -98 29 -98 11 0 58 67 135 190 66 105 120
187 122 182 1 -4 -18 -105 -42 -225 -24 -119 -40 -217 -37 -217 3 1 44 9 90
18 92 19 120 42 53 42 -31 0 -42 4 -47 19 -5 17 61 378 84 459 9 31 9 32 -23
32 -18 0 -39 -6 -48 -12z"/>
<path d="M4820 2981 c0 -5 9 -13 20 -16 11 -3 20 -14 20 -23 0 -9 -23 -116
-50 -236 -28 -121 -50 -223 -50 -228 0 -4 15 -8 33 -8 l33 0 18 96 c20 103 58
176 107 203 64 36 75 -20 34 -179 -14 -52 -25 -101 -25 -107 0 -9 19 -13 63
-13 l62 0 -24 19 c-27 20 -26 28 4 171 21 96 16 132 -20 156 -34 22 -78 10
-126 -33 -22 -20 -39 -31 -39 -27 0 5 13 60 29 122 l29 112 -59 0 c-32 0 -59
-4 -59 -9z"/>
<path d="M5420 2981 c0 -5 9 -13 20 -16 11 -3 20 -15 20 -24 0 -10 -22 -118
-50 -239 -27 -121 -50 -223 -50 -226 0 -3 15 -6 33 -6 l33 0 18 90 c15 72 22
90 36 90 24 0 33 -14 65 -102 l28 -78 53 0 c30 0 54 5 54 10 0 6 -6 10 -13 10
-8 0 -21 8 -29 18 -15 17 -68 143 -68 161 0 5 34 35 75 67 41 33 75 65 75 72
0 8 -20 12 -65 12 -64 0 -75 -6 -54 -27 18 -18 1 -48 -45 -81 -54 -39 -89 -43
-81 -9 3 12 17 74 31 137 13 63 27 123 30 133 5 15 -2 17 -55 17 -34 0 -61 -4
-61 -9z"/>
<path d="M5260 2941 c0 -11 -3 -26 -6 -35 -5 -13 1 -16 29 -16 28 0 36 5 41
23 11 41 7 47 -29 47 -28 0 -35 -4 -35 -19z"/>
<path d="M4196 2816 c-81 -30 -136 -123 -136 -231 0 -93 56 -135 158 -120 112
17 195 186 148 300 -8 18 -23 38 -34 44 -35 18 -96 22 -136 7z m104 -45 c29
-54 -3 -196 -55 -248 -36 -36 -59 -41 -93 -17 -18 13 -22 24 -22 74 0 73 32
162 67 190 34 26 89 27 103 1z"/>
<path d="M4586 2815 c-108 -38 -178 -199 -130 -300 19 -41 61 -59 115 -52 44
6 119 52 119 73 0 24 -17 24 -50 -1 -39 -29 -100 -34 -120 -10 -22 26 -7 146
24 199 29 50 51 66 91 66 20 0 28 -7 36 -30 20 -55 58 -31 59 36 0 34 -74 44
-144 19z"/>
<path d="M5860 2814 c-80 -35 -130 -119 -130 -221 0 -75 13 -108 51 -123 39
-17 72 -6 120 37 l41 37 -7 -37 -7 -37 58 1 c57 0 58 1 37 16 -30 20 -29 35 7
194 23 102 27 134 18 140 -7 4 -18 3 -25 -3 -9 -7 -26 -7 -57 1 -56 14 -63 14
-106 -5z m108 -72 c5 -66 -23 -146 -67 -192 -50 -52 -86 -55 -99 -7 -11 38 -1
116 21 169 21 50 63 80 106 76 35 -3 36 -5 39 -46z"/>
<path d="M5186 2811 c-3 -5 3 -11 14 -14 27 -7 26 -29 -10 -187 -16 -73 -30
-134 -30 -136 0 -2 27 -4 60 -4 58 0 80 12 40 23 -26 7 -26 21 10 184 17 75
30 138 30 140 0 8 -109 2 -114 -6z"/>
<path d="M5543 2310 c-48 -20 -60 -110 -20 -148 53 -50 127 -12 127 65 0 66
-52 106 -107 83z m73 -45 c18 -27 12 -76 -12 -95 -21 -18 -63 -3 -75 27 -26
70 47 128 87 68z"/>
<path d="M5714 2309 c-26 -13 -44 -50 -44 -90 0 -58 68 -97 120 -69 23 13 43
70 35 103 -13 48 -69 76 -111 56z m76 -38 c34 -65 -27 -143 -74 -95 -19 18
-21 85 -4 102 19 19 66 15 78 -7z"/>
<path d="M5868 2313 c-15 -4 -18 -17 -18 -90 l0 -86 52 5 c61 6 88 32 88 85 0
49 -15 71 -58 83 -20 5 -39 9 -42 9 -3 -1 -13 -3 -22 -6z m87 -47 c28 -42 -6
-106 -57 -106 -15 0 -18 9 -18 65 l0 65 30 0 c20 0 34 -8 45 -24z"/>
<path d="M5382 2228 c2 -54 7 -83 16 -86 8 -2 12 9 12 37 0 39 2 41 30 41 17
0 30 5 30 10 0 6 -13 10 -30 10 -25 0 -30 4 -30 25 0 22 4 25 35 25 19 0 35 5
35 10 0 6 -23 10 -50 10 l-51 0 3 -82z"/>
</g>
</svg>
